/* XPM */
static char *result[] = {
/* columns rows colors chars-per-pixel */
"32 32 215 2 ",
"   c #171211",
".  c #1B1514",
"X  c #101F19",
"o  c #1C1F1C",
"O  c #181C17",
"+  c #241B19",
"@  c #231916",
"#  c #042616",
"$  c #0B2017",
"%  c #03261C",
"&  c #0E2B1D",
"*  c #09281B",
"=  c #1E2414",
"-  c #17271E",
";  c #152C1B",
":  c #1A2B1D",
">  c #1D291A",
",  c #08311C",
"<  c #0C3D1E",
"1  c #173117",
"2  c #1B3615",
"3  c #1B361C",
"4  c #15391D",
"5  c #1C381D",
"6  c #1D3A16",
"7  c #202917",
"8  c #24221D",
"9  c #2B231D",
"0  c #202D1A",
"q  c #32231B",
"w  c #223415",
"e  c #243D15",
"r  c #23331D",
"t  c #29321B",
"y  c #223D1A",
"u  c #2D3D1B",
"i  c #2A3F12",
"p  c #323B1B",
"a  c #30331D",
"s  c #032B22",
"d  c #082F24",
"f  c #132B24",
"g  c #1A2C23",
"h  c #023322",
"j  c #0E3324",
"k  c #033C25",
"l  c #0A3C23",
"z  c #093E28",
"x  c #133523",
"c  c #1B3323",
"v  c #1B3D26",
"b  c #143C29",
"n  c #1B3A2A",
"m  c #173C26",
"M  c #2B2522",
"N  c #242B22",
"B  c #2B2A23",
"V  c #2D2C2B",
"C  c #242E29",
"Z  c #332A25",
"A  c #382B27",
"S  c #352D2B",
"D  c #3B2D2A",
"F  c #223323",
"G  c #2A3722",
"H  c #253C23",
"J  c #2B3E21",
"K  c #2D342A",
"L  c #253D2D",
"P  c #2C3B2C",
"I  c #323F24",
"U  c #34322D",
"Y  c #3B322D",
"T  c #323D2D",
"R  c #363A27",
"E  c #352F30",
"W  c #343431",
"Q  c #3B3532",
"!  c #3C3934",
"~  c #3D3B38",
"^  c #303D33",
"/  c #412F2B",
"(  c #41362E",
")  c #403C28",
"_  c #49392E",
"`  c #4C352C",
"'  c #433631",
"]  c #433B34",
"[  c #493E34",
"{  c #443E3A",
"}  c #493F39",
"|  c #164B1F",
" . c #1C561A",
".. c #264117",
"X. c #2A4317",
"o. c #25411B",
"O. c #2D4419",
"+. c #254D1C",
"@. c #32451E",
"#. c #2A561E",
"$. c #225B1C",
"%. c #25611F",
"&. c #34691F",
"*. c #0B4324",
"=. c #0B4923",
"-. c #0D4B2A",
";. c #074728",
":. c #154423",
">. c #1A4122",
",. c #124B23",
"<. c #1A4B27",
"1. c #15452C",
"2. c #154C2B",
"3. c #1C4D2C",
"4. c #0F502C",
"5. c #1B5427",
"6. c #1B542B",
"7. c #115829",
"8. c #14502D",
"9. c #154A31",
"0. c #244426",
"q. c #214F2F",
"w. c #2D492C",
"e. c #344324",
"r. c #394722",
"t. c #3B4B23",
"y. c #33442B",
"u. c #3C442B",
"i. c #314E2F",
"p. c #394A2F",
"a. c #3C5324",
"s. c #3D5128",
"d. c #335E28",
"f. c #274836",
"g. c #2C4638",
"h. c #294632",
"j. c #374436",
"k. c #3F4433",
"l. c #394A3C",
"z. c #3F4839",
"x. c #2E5136",
"c. c #386E21",
"v. c #376D23",
"b. c #246827",
"n. c #40462F",
"m. c #415A2D",
"M. c #444336",
"N. c #4C4236",
"B. c #424B34",
"V. c #45423D",
"C. c #4C433B",
"Z. c #454B3F",
"A. c #4B4B3C",
"S. c #51463B",
"D. c #544A3E",
"F. c #584A3E",
"G. c #524337",
"H. c #4B5434",
"J. c #4E503F",
"K. c #495637",
"L. c #3E3B40",
"P. c #4A3F41",
"I. c #413D42",
"U. c #3D4B43",
"Y. c #454441",
"T. c #494642",
"R. c #434C44",
"E. c #4B4A46",
"W. c #464A48",
"Q. c #4D4C49",
"!. c #544543",
"~. c #564D42",
"^. c #5A4E43",
"/. c #524D4B",
"(. c #445047",
"). c #4D524C",
"_. c #435C48",
"`. c #5B5145",
"'. c #55544C",
"]. c #5C554B",
"[. c #5C5D4B",
"{. c #555547",
"}. c #555551",
"|. c #5A5651",
" X c #575854",
".X c #5D5B55",
"XX c #5F5C58",
"oX c #60564A",
"OX c #625A4D",
"+X c #625D55",
"@X c #635E59",
"#X c #506249",
"$X c #5B634B",
"%X c #566555",
"&X c #586654",
"*X c #676156",
"=X c #65625B",
"-X c #6A655E",
";X c #6C6A5F",
":X c #706559",
">X c #736C5F",
",X c #6B6660",
"<X c #6D6B63",
"1X c #716C64",
"2X c #706E68",
"3X c #726763",
"4X c #6F7065",
"5X c #757266",
"6X c #75746C",
"7X c #79776D",
"8X c #7D7A6E",
"9X c #767770",
"0X c #7A7A72",
"qX c #827A6B",
"wX c #818276",
/* pixels */
"D.} ` :X+X^.`.`.D.] _ ;X+X^.~.`.!.} Z +X-XoXF.D.~.} q G.>X`.^.`.",
",X.XL %X3X<X5X<X-XXXQ qX1X5X<X<X-XXX] 8X2X5X<X,X#Xl.Y +X6X<X5X<X",
"3X_.h & z.@X|.-X-X&X:.U @X+X+X,X-X=XZ *X<X+X,XP.m 0.C ;.l.@X.X-X",
"Y.U O x b.p.I.E.E.i., + R ^ { ~ V.Q Z ] W Y.Y.6.x +   $ g S Y.E.",
"'.~.^.B u R P -.- h x 5.j : 4 9 +X+XoXC.! Q @.%.; B `.^.^.C.} A ",
"7X1X,XT c Q T 3 U W V.Z.V H 5.g qXqX1X5X-X@X~.  c 6..X5X<X<X=XY ",
"|.-X.X*.d F 8.> E.@XXX.XY.v.:.F L }.,X=X-X-X,XB c N V.+XQ.@XXXZ ",
"! ] E.V #.=.# r E K V U W + ; & | d.{ V.T.E.Y c =.2.x : q.V.! 9 ",
"!.N.M.] a.j.!.^.F.~.S.] Z ].=X] r #.T ] 9 N.*X`.! w.- O $.a.!.~.",
";X=XXX).A 5X<X5X<X1X,XXX] 8X6XOX5.f x.=X( >X6X1X7X!.g 2.0 ~.=X=X",
").XXXX'.M .X-XXX@X,X-X@XZ *X1X'.K 0.v ! L +X*X@XY H 8.b r /..X}.",
"Z Y W V 9 } Q ] { Q Y.! Y ] Q I.@. .$ | # T (.j.,.% 3 M A W W B ",
"+X~.^.D.F.C.Q & K D.M.[ Q Q Z ] [.A.] M.[ x :.0.h.C.} M.W Q S ] ",
"1X1X<X<X;X<XT.% 9.=XXX-X).}.! `.7X1X<X3X3Xh.<.h b +X;X=X'. XV ^.",
"=X=X,X.X'.,Xz.: K /..X|.Q..XW C.<X=X-X(.n c.3 g f.XX.X.XXX=X! U ",
"Q V.E.Y.Y.{ L =.s *.j.{ W W M Q T.V.Y.z & @ . Y ! ! Q Y Y ! M S ",
"] ( N.+X~.C.C.8 :.k F - ;.F R 4., N ' L :.r D.D.M.Z q OXoXS.~.^.",
"<XV.`.<X=X<X*Xa.%.X ,.f >.&.J x k z 3.n :.&.'.<X<XT.G.wX<X5X2X<X",
"1XV.Q |.XXW. X'.Q.V t M.E.Z./.y.8.O H b V Y /.|.<X{ M.-X,X X=X-X",
"V.Z U V S 8 Q W ~ + Z Q ~ { { Y - : @ *.v P.E.T.V.M S T.! W T.Y.",
"] ].`.C.C.! ] Y ] ].`.C.C.D.] W #.7.C C.M.Q } W N.=X].~.S.~.M.] ",
"OX7X1X-X5X@X=XM.`.7X1X,X,X,X<Xl. .f k &X1XXX=X! `.6X1X1X3X<X,XQ.",
"} =X-X*X-X|.-XV.C.1X=X-X.X}.=X1.s -.1.).3X-X1XT.U =X@X,XXX'.,XY.",
"S ] V.E.T.Y.! S Y V.~ Y.! Y.V.8 O 3 G I.} Y.V.S S ] T.T.{ Y.{ V ",
"~.] ( S.*X`.S.~.`.} S [ =XXXD.S.r b l :.C.`.N.D.~.] Z ~.-X~.D.~.",
"<X<XY.].0X3X5X<X,X,XV.OX0X1X6X3XK.c N $.m.XX4X4XXXXXQ ].0X-X5X5X",
"=X3XM.] ,X=X|.,X-X<X{ N.1X*X@X@XU.c c <.T XXW.}.|.=XQ ] -X,X}.=X",
"I.T.M ] ~ Q k.W ~ T.B Q ! ! U.g.2.k , 4 S M.8 Q K Q M Q ~ Q ~ E.",
"N.) ! S Y ] p M.`.`.^.`.S.} l k :.> z P A p a ] G.N.] ] } S B u.",
"a.a.[.H.A.Z.t B.$X=X[.[.'.Z.3 x +.O./.K.M.n.p *XK.A./.B.'.Z.7 H.",
"X.X.u.n.r.@.w G e.e.@.u R #.*.s C 3 M.e.@.t.w u.t.T @.@.r @.i O.",
"6 ..3 y 2 ..6 2 y y e 1 J r + x < r y ..X.6 > 2 ..u e e 2 i 2 1 "
};
