/* XPM */
static char *cc08fad0bb53433f9130c3fb19d3c59494XZ3WXHpr0zAYMz[] = {
/* columns rows colors chars-per-pixel */
"32 32 175 2 ",
"   c #221E1C",
".  c #2B1F1A",
"X  c #1F2715",
"o  c #132D13",
"O  c #1F2E15",
"+  c #173117",
"@  c #1B3615",
"#  c #1D3A16",
"$  c #1D3718",
"%  c #25221E",
"&  c #2C231F",
"*  c #34241C",
"=  c #223415",
"-  c #243D15",
";  c #2A3F12",
":  c #22351E",
">  c #283018",
",  c #233C19",
"<  c #2D3D1A",
"1  c #31341E",
"2  c #333B1B",
"3  c #2C2522",
"4  c #2D2924",
"5  c #2E2D2C",
"6  c #332A25",
"7  c #3A2D26",
"8  c #342E2B",
"9  c #392E28",
"0  c #273921",
"q  c #2B3C21",
"w  c #3B3427",
"e  c #323F24",
"r  c #34312E",
"t  c #3B322D",
"y  c #343D2B",
"u  c #383F2C",
"i  c #353331",
"p  c #3B3632",
"a  c #3D3935",
"s  c #3E3C3A",
"d  c #42352D",
"f  c #443A2D",
"g  c #49392E",
"h  c #413630",
"j  c #433B34",
"k  c #4A3E34",
"l  c #443E39",
"z  c #483F39",
"x  c #264117",
"c  c #2A4317",
"v  c #254119",
"b  c #2E471C",
"n  c #33431F",
"m  c #344224",
"M  c #394722",
"N  c #374925",
"B  c #3B4B23",
"V  c #364529",
"C  c #3C432C",
"Z  c #3F5422",
"A  c #3D5128",
"S  c #3E4234",
"D  c #3F4B34",
"F  c #3F413F",
"G  c #40462F",
"H  c #474636",
"J  c #4D4236",
"K  c #424B34",
"L  c #45423E",
"P  c #4C443B",
"I  c #45493F",
"U  c #494F3B",
"Y  c #524337",
"T  c #51463B",
"R  c #534A3E",
"E  c #465231",
"W  c #4B5434",
"Q  c #4E503F",
"!  c #515B39",
"~  c #454442",
"^  c #494642",
"/  c #474C41",
"(  c #4A4946",
")  c #464A48",
"_  c #4C4C49",
"`  c #564C42",
"'  c #594E42",
"]  c #514E4A",
"[  c #4E514D",
"{  c #555044",
"}  c #5C5145",
"|  c #55534E",
" . c #5C554B",
".. c #545A48",
"X. c #5C5D4B",
"o. c #565651",
"O. c #5A5651",
"+. c #575854",
"@. c #5D5B55",
"#. c #5E5D58",
"$. c #60564A",
"%. c #635A4D",
"&. c #615C54",
"*. c #625E59",
"=. c #5B634B",
"-. c #676052",
";. c #626057",
":. c #676156",
">. c #666454",
",. c #6A6156",
"<. c #61605A",
"1. c #62605A",
"2. c #676158",
"3. c #64615B",
"4. c #67615B",
"5. c #65635B",
"6. c #65625C",
"7. c #67635C",
"8. c #67645F",
"9. c #65625B",
"0. c #68635D",
"q. c #6A635D",
"w. c #69645D",
"e. c #69655E",
"r. c #68645E",
"t. c #6A645F",
"y. c #69665E",
"u. c #6B675F",
"i. c #6E675D",
"p. c #69655E",
"a. c #6C695D",
"s. c #6E6A5D",
"d. c #736B5D",
"f. c #716A5F",
"g. c #746C5E",
"h. c #6B6660",
"j. c #6C6761",
"k. c #6A6760",
"l. c #6A6961",
"z. c #696A63",
"x. c #6D6961",
"c. c #6F6A61",
"v. c #6D6B63",
"b. c #6F6B62",
"n. c #6D6D63",
"m. c #6C6964",
"M. c #6D6A64",
"N. c #6E6D64",
"B. c #6E6F64",
"V. c #6D6B63",
"C. c #706C61",
"Z. c #716D63",
"A. c #716F64",
"S. c #716F66",
"D. c #716D64",
"F. c #706E68",
"G. c #6F7065",
"H. c #757060",
"J. c #737366",
"K. c #767165",
"L. c #757365",
"P. c #767466",
"I. c #747266",
"U. c #747168",
"Y. c #75756E",
"T. c #75736C",
"R. c #7A776C",
"E. c #7C7A69",
"W. c #7A786D",
"Q. c #7D7A6D",
"!. c #7B7A6E",
"~. c #777770",
"^. c #7B7B73",
"/. c #817D6C",
"(. c #848474",
/* pixels */
"R z d ,.&.' ' ' R l g i.&.' ` } ` l 7 &.w.$.R ` ` z * Y a.$.' } ",
"k.@.j R.M.C.K.D.w.#.j R.x.L.N.M.w.#.p W.F.U.N.a.v.#.9 f.Y.x.K.x.",
"k.3.6  .j.3.@.q.w.6.6 @.i.#.&.k.j.*.7 5.j.&.6.] #.#.6 &.k.*.@.w.",
"~ p 6 l j i s ( L i 6 t p a l a L p 6 j p ~ ( ( L p 3 j ~ r ~ ( ",
"| ` } P j t l t R P R a P P 8 3 &.%.} R i j j 7 @. .} ' R T l 9 ",
"R.C.x.c.M.#.#.d H.5.>.@.#.#.o.8 /./.S.K.w.*.o.7 U.S.N.M.j.x.1.t ",
"O.w.w.q.*.#.*.t @.#.O.+.) | | 6 a.v.7.q.w.j.w.6 ] 5.k.6.| *.*.6 ",
"a a ^ _ _ a t 3 i r 5 r i r 4 . z ~ L L ^ ^ p 8 h j P ( ( ^ i & ",
"R P J i d &. .' R R T h 6 } &.$.P P P j * k ,.} ` ` P l d } } ` ",
"x.5.#.] 9 !.D.K.S.S.j.#.j ^.U.P.J.x.N.3.t g.~.C.K.M.k.#.t f.3.7.",
"[ #.#.| 3 %.k.&.*.k.k.*.6 ,.i.#.5.| &.#.6 5.q.*.@.k.k.*.6 _ @.+.",
"6 r r 5 3 l p a s p ^ a 9 z i ~ ~ ~ ~ a 3 t ( r s ~ ) p 7 i i 3 ",
"&.} ` R R T t f P T H H i p 8 j | } P P } l 8 j %.` R j i i r k ",
"G.c.N.x.k.N.L } v.5.&.y.] o.p } W.C.k.w.w.M.P P U.l.7.>.[ +.5 ' ",
"*.6.k.@.| k.l 8 o.O.O.&._ +.p P F.6.w.#.| v.z J z.<.+.#.@.5.a r ",
"p P ( ~ ~ ~ 6 5 r a p i r r 3 8 ~ l ~ p ~ L 4 r s s a t i p 3 7 ",
"z t J %.R P R R p 6 R 5.' T ` ' l 9 z *.&.R R ` L 3 * %.$.T ` } ",
"v.L } G.;.z.y.#.#.p $.^.C.K.N.k.j.L %.^.U.U.x.w.N.P J (.M.U.J.x.",
"x.P t @.#.) +.O.5.i j w.0.O.k.6.D.l P S.q.*.&.| x.l L k.k.+.*.q.",
"~ 4 r 5 8 % a i a   7 p p s a l ( 3 t p i ( ^ ( L 3 7 ~ p i ( ~ ",
"j  .} J J j h t d  .' P P ` j 8 k i.%.R z p l p k 5. .` R ` P h ",
"%.R.x.x.Z.#.3.L $.W.C.k.k.k.N.~  .(.J.K.D.&.6.p } Y.C.N.M.k.M.( ",
"j 5.q.5.k.#.7.l T N.q.q.#.o.k.j T F.v.5.k.q.D.~ p *.*.j.#.| k.~ ",
"t a ^ ( ~ ~ a 8 t ~ s ~ p ) l 8 t ^ ^ ~ l ~ P r 8 j P ^ L ~ l 5 ",
"` l d R q.' T ` ' z 8 j 5.&.R R R z p * } } J R ` p 7 R 7.` R ` ",
"j.j.~  .^.C.J.N.j.M.~ %./.Z.U.M.x.S.^ k G.1.N.N.*.#.i %.^.k.K.J.",
"5.D.l h w.5.O.h.6.D.l P F.q.*.&.O.w.a j #.O.) O.@.3.i a 7.k.o.6.",
"~ ~ 3 h l i a p a ~ 6 f p a ( F ~ ^ 8 3 p C % p 5 a 3 h s a a ( ",
"H 2 f 8 r j 2 H | { } } T z w  .` w P z 7 2 1 j J J j k z r & C ",
"E E X.E Q I > K =.>...X.| / 1 >.X.N #.! K K < &.W Q _ K | I = W ",
"c c V K m n = 0 m m M < C b X c m : a m e n = C A y n n : e ; c ",
"# x @ : # - - @ , , x + q @ - , o : $ x c @ = = - , # ; @ ; @ + "
};
