/* XPM */
static char *f023356a6b904b9be338dfde28ad35e2vJiW27uyiFOwHLU0[] = {
/* columns rows colors chars-per-pixel */
"32 32 145 2 ",
"   c #221E1C",
".  c #2B1F1A",
"X  c #25211E",
"o  c #2C231F",
"O  c #34241C",
"+  c #272220",
"@  c #2C2622",
"#  c #2D2926",
"$  c #2E2D2C",
"%  c #332A25",
"&  c #3A2D26",
"*  c #342E2A",
"=  c #392E29",
"-  c #34312E",
";  c #3B322C",
":  c #353432",
">  c #3B3632",
",  c #3D3935",
"<  c #3E3D3B",
"1  c #42362D",
"2  c #46392F",
"3  c #49392E",
"4  c #413630",
"5  c #433B35",
"6  c #4A3E34",
"7  c #443E39",
"8  c #483F39",
"9  c #3F413F",
"0  c #4C4136",
"q  c #45413D",
"w  c #4C443B",
"e  c #4F483E",
"r  c #524337",
"t  c #51463B",
"y  c #534A3E",
"u  c #454442",
"i  c #494642",
"p  c #4A4946",
"a  c #474A49",
"s  c #4D4D4A",
"d  c #564C42",
"f  c #594E42",
"g  c #514E4A",
"h  c #4E514D",
"j  c #565147",
"k  c #5C5144",
"l  c #54534E",
"z  c #5C554B",
"x  c #5E584E",
"c  c #565651",
"v  c #5A5651",
"b  c #575854",
"n  c #5D5B55",
"m  c #5E5D58",
"M  c #60564A",
"N  c #635A4D",
"B  c #615C54",
"V  c #625E59",
"C  c #676052",
"Z  c #626057",
"A  c #676156",
"S  c #666057",
"D  c #6A6156",
"F  c #696154",
"G  c #61605A",
"H  c #61615A",
"J  c #62605A",
"K  c #676158",
"L  c #64615B",
"P  c #67615B",
"I  c #65635B",
"U  c #65625C",
"Y  c #67625C",
"T  c #67635C",
"R  c #67645F",
"E  c #65625B",
"W  c #68635C",
"Q  c #68635D",
"!  c #6A635D",
"~  c #68645D",
"^  c #69645D",
"/  c #68645E",
"(  c #69655E",
")  c #6A645E",
"_  c #6B645E",
"`  c #6A645F",
"'  c #6A655F",
"]  c #6B655F",
"[  c #69665E",
"{  c #6B665F",
"}  c #6B675F",
"|  c #6E675D",
" . c #69655E",
".. c #6C695D",
"X. c #6E6A5D",
"o. c #736B5D",
"O. c #716A5F",
"+. c #746C5E",
"@. c #6B6660",
"#. c #6C6760",
"$. c #6C6761",
"%. c #6A6660",
"&. c #6A6961",
"*. c #696A63",
"=. c #6D6961",
"-. c #6F6A61",
";. c #6C6B63",
":. c #6D6B63",
">. c #6E6B62",
",. c #6F6B62",
"<. c #6F6A63",
"1. c #6D6D63",
"2. c #6C6964",
"3. c #6D6A64",
"4. c #6E6D64",
"5. c #6E6F64",
"6. c #6D6B63",
"7. c #706C61",
"8. c #716D63",
"9. c #716F64",
"0. c #716F66",
"q. c #716D64",
"w. c #706E68",
"e. c #6F7065",
"r. c #757060",
"t. c #737366",
"y. c #767165",
"u. c #757264",
"i. c #757365",
"p. c #767466",
"a. c #747266",
"s. c #787266",
"d. c #747168",
"f. c #75756E",
"g. c #75736B",
"h. c #7A776C",
"j. c #7C7A69",
"k. c #7A786D",
"l. c #7D7A6D",
"z. c #7B796D",
"x. c #777770",
"c. c #7B7B73",
"v. c #817D6C",
"b. c #807C6C",
"n. c #848474",
/* pixels */
"y 8 3 V B f f f d 7 3 | B k d k d 7 & B ! z y d d 5 O r ..M f k ",
"%.n 4 h.7.7.y.q.[ n > k.=.r.e.=.[ n > l.w.y.5...&.V = O.f.=.p.=.",
"%.L % x $.V n ! } I % x $.n V %.$.V & A $.B P g V m % B %.m n ! ",
"u > % 7 5 : < p u > o , > , 7 , u > % 5 > u p p q > @ 7 u * u s ",
"z d f w 5 > 7 = y y y > w w - @ B B z t > 5 7 & n x k f t y 7 & ",
"h.q.=.7.q.n n 3 r.I Z n m H l * v.j.q.y.[ V c = y.q.3.5.=.=.V ; ",
"v P P P V n m ; n n n n u c j % | &.[ ! ! | I % g P ! P l B V % ",
", , p s s , ; # : $ $ $ : - # . 6 u q q u i , % , 5 q p s u > @ ",
"d w 7 > 1 N x f y d t 4 % z B M t w e 5 O 6 K k d y w 7 1 k k d ",
"&.P n j ; b.q.y.q.5.%.m 5 l.w.p.e.=.*.I ; +.c.=.g.3.%.m ; ..P I ",
"h n m c @ v %.B V %.[ V % A =.Z I l V B % P ! V n [ %.P % s m c ",
"# - - $ o 7 , , , > i , & q > q u u u , + ; i - < i u > * : : @ ",
"B k d y f w = 4 w y 0 0 : > * 5 z j w w k 7 = 6 N d y 7 : > = 5 ",
"5.q.5.=.[ 3.i k =.J n [ h c > k k.7.%.%.I 5.u w e.[ [ I h c $ k ",
"V P %.n z %.7 - b v b n h n : w w.V ! n l &.0 w *.I c m n L , = ",
"> w p u u u # # : , > ; - $ X ; u 7 u , u q # - , , , ; - , @ * ",
"5 1 0 N d w y y , % y P f t d k 7 = 5 P B y y y q % O M x t t k ",
"=.i y u.n *.[ Z n > M c.7.y.5.$.$.q N c.0.g.=.[ 5.w r n.3.g.d.=.",
"q.w ; b m a c b P > 5 $.K n %.V q.7 w q.K V B c %.7 w %.%.b P P ",
"u # - $ - X , - :   % > > , , 7 p @ > > > p u p q + * u > - s i ",
"5 z k w w 5 4 ; 5 z f w w f 5 * 6 | N y 5 > 7 > 5 P k f y d w > ",
"N h.7...q.V L q M h.7.%.[ &.5.u z n.t.y.7.V P > z x.7.q.3.%.=.s ",
"5 P P P ! n [ u w q.P ! n v [ 7 t q.&.P %.! q.i ; J V $.n c [ q ",
"; , u p i u , % ; q < u , u q # ; i p i 7 i 7 : = 7 i u q u 7 * ",
"d q 1 t P f t d k 7 = 5 P B t y y 0 ; O k k 0 e d > * y [ f y d ",
"=...q x c.7.p.5.$.%.u N c.0.g.=.&.u.i 0 e.Z e.e.n m : M c.[ y.y.",
"P q.7 4 %.P v %.! 5.7 w q.K V B c %.q , n n a b n I , 5 [ %.v P ",
"< u @ 5 , > < > > u % 1 , , s u u q % X > - X ; * : + > , , : p ",
"D d e 5 ; 7 ; j n f f k t 7 = j j y w w ; , ; 0 t 0 5 i w $ = n ",
"l.y.y.! L n ; g.q.5.=.[ &.L 4 s.q.=.7.=.m m 1 r.I J n m L c * b.",
"I [ V ! %.P % g V P P g B n # l I L P V x m - B n b n u l s @ D ",
"s p i p s q * 5 q s s s s 7 = 7 q s l s q , * > : : : : , : % d "
};
