/* XPM */
static char *_ed726c644434da8a97694b0ac3897006KC8VSAOY3RHnCxe[] = {
/* columns rows colors chars-per-pixel */
"32 32 82 1 ",
"  c #251711",
". c #251913",
"X c #291C15",
"o c #221E1C",
"O c #2B1F19",
"+ c #25211E",
"@ c #2D221D",
"# c #32231C",
"$ c #38261D",
"% c #272220",
"& c #2C2622",
"* c #2E2926",
"= c #2E2D2C",
"- c #332A25",
"; c #3A2D26",
": c #342E2A",
"> c #392F29",
", c #34312E",
"< c #3B322C",
"1 c #353432",
"2 c #3B3632",
"3 c #3D3935",
"4 c #3E3D3B",
"5 c #42352D",
"6 c #46392F",
"7 c #49392E",
"8 c #413630",
"9 c #433B35",
"0 c #493E34",
"q c #443E39",
"w c #483F39",
"e c #3F413F",
"r c #4D4135",
"t c #45413E",
"y c #4C433B",
"u c #4F483E",
"i c #524337",
"p c #52463B",
"a c #534A3E",
"s c #454442",
"d c #494642",
"f c #4B4946",
"g c #474A49",
"h c #4D4D4A",
"j c #564C42",
"k c #594E42",
"l c #524E49",
"z c #4E514D",
"x c #565147",
"c c #5B5145",
"v c #54524E",
"b c #5C554B",
"n c #5E584E",
"m c #565651",
"M c #5A5751",
"N c #575854",
"B c #5D5B55",
"V c #5E5E58",
"C c #605649",
"Z c #635A4D",
"A c #615C54",
"S c #615E59",
"D c #656055",
"F c #6A6155",
"G c #65625B",
"H c #69655E",
"J c #6D695D",
"K c #736B5E",
"L c #6A6660",
"P c #6D6B63",
"I c #716D64",
"U c #716E68",
"Y c #747265",
"T c #787266",
"R c #75746B",
"E c #79776C",
"W c #7B796C",
"Q c #777770",
"! c #7B7B73",
"~ c #817D6C",
"^ c #817F73",
"/ c #848474",
/* pixels */
"aw6SZkkkfr6JAajcjw>AHbaaj9#iKckc",
"LB8EIITIGV3WITPPHB3WUTPJPD>KRPRP",
"LG-nLSMHJG-nJBSLLG-FPAGvSV-AHVBH",
"s2-q91eft3@223q3t2-9,sffs1&qs:sh",
"bjki92q;paa2yy,-AACp839;Anckaiw>",
"EIPIIBB6YGDBBSv-~~IYmDM>TIPPPPS<",
"MHHSSBS>BBNMgvz-JLLM1IH-lHHHvSS&",
"32dhhs3>42111,*@0dstvf2-22tffd2&",
"jyw2<#X@OXX.XCACr,tq#0Gcjjyq5ccj",
"LGBv*..XXX@.-^IWB2RG<KQPTILV<JGH",
"zBBm@XX@#@@O#GJDDLLB-GHDBLLG-hBm",
"-1,=XXXX  XX$t1eses3@<d14ss2>11&",
"Acjaky<6pary12-rvcyyxr:6nxa911>9",
"YPPPLPtcPGBHzm2cWILLJPsyYHHHzN=k",
"VHLBvLt,mMMBzM1uPHLBmJtyPGMBMH3,",
"2ydsdt-*,322,,+>s4s3tt*,332,22&>",
"r5rZxtaa2-aGkpjcw:wGAaajw&#ZCpac",
"LtxIDPHBB2n!IYPLLqZ!UYLJPsi/PRYP",
"Pt<NBgmBH28JGBLHPwyIHSAmPqtHLMSH",
"s-<==+2,1o;22334d&822fsdt&-d21fs",
"0bcyy28<5bjyyj9>wHZa92q<9Hcjajy8",
"ZRPJTSHtZWILLLPsb/YTISH2cRIUPLPf",
"9HHGHMHtyPGHVmLwpPLHHHPd2DSLVMLs",
"<3tfds3:<sqt3sq*5dfswst,,3ydssq*",
"jr<aHkpjcw>9GAauat<$cxrak2:aHjaj",
"LLtnWIYPPLtZ!IYPJIt6YDPPVS1Z!HYT",
"GPt8HHMLHPwyIHSBmJtrBBgNBH18HLmH",
"et&932t23s*529fset=+2,+<:1%8391g",
"Fkd9<q<bBaccy9;xxayy<3<rpr8fw=>A",
"WITHDN>YIPIHPS9TYPPPBV6YGHBVGm>W",
"HHSHHH*lSHSmSB*vHDGABB<BBNBevl-F",
"lfddht,qthlfhq:qthvzt3:111113=-l"
};
