/* XPM */
static char *_be415695d224f7790c9f9994f3782f1cNIhzsaMLvpfyLVE[] = {
/* columns rows colors chars-per-pixel */
"48 48 138 2 ",
"   c #301F1A",
".  c #34221C",
"X  c #352724",
"o  c #352925",
"O  c #362C2B",
"+  c #382E2E",
"@  c #352F30",
"#  c #382F30",
"$  c #363434",
"%  c #3A3334",
"&  c #3D363A",
"*  c #373C3D",
"=  c #3C3A3B",
"-  c #443632",
";  c #443936",
":  c #483B37",
">  c #433C3C",
",  c #493E3A",
"<  c #47403F",
"1  c #49423D",
"2  c #3F3E40",
"3  c #423F41",
"4  c #3E4344",
"5  c #3E4748",
"6  c #3F4849",
"7  c #424345",
"8  c #4A4643",
"9  c #4B4947",
"0  c #424649",
"q  c #444B4D",
"w  c #4B4C4C",
"e  c #464E50",
"r  c #484F51",
"t  c #475152",
"y  c #4D5251",
"u  c #4C5252",
"i  c #4E5353",
"p  c #4C5050",
"a  c #495154",
"s  c #4A5054",
"d  c #485254",
"f  c #495254",
"g  c #495255",
"h  c #495355",
"j  c #4A5255",
"k  c #4C5356",
"l  c #4B5455",
"z  c #485456",
"x  c #495456",
"c  c #495457",
"v  c #4B5456",
"b  c #4B5457",
"n  c #4B5557",
"m  c #495254",
"M  c #495458",
"N  c #495558",
"B  c #4B5558",
"V  c #4D5758",
"C  c #4C5759",
"Z  c #4D565A",
"A  c #4C5659",
"S  c #4C585A",
"D  c #4D585B",
"F  c #4E585A",
"G  c #4E585B",
"H  c #4D595C",
"J  c #4F5B5D",
"K  c #4E5C5E",
"L  c #4E5C5F",
"P  c #4E595C",
"I  c #50585C",
"U  c #50595C",
"Y  c #515A5E",
"T  c #505B5E",
"R  c #565D5C",
"E  c #515A5D",
"W  c #4D5D60",
"Q  c #4E5D60",
"!  c #525B60",
"~  c #525C60",
"^  c #525E61",
"/  c #515F62",
"(  c #535E62",
")  c #515E61",
"_  c #506062",
"`  c #506164",
"'  c #536064",
"]  c #526164",
"[  c #536164",
"{  c #526265",
"}  c #536266",
"|  c #536366",
" . c #536367",
".. c #546164",
"X. c #546265",
"o. c #546266",
"O. c #546366",
"+. c #556366",
"@. c #556367",
"#. c #546467",
"$. c #556467",
"%. c #546265",
"&. c #556468",
"*. c #556569",
"=. c #566569",
"-. c #566669",
";. c #55666A",
":. c #56666A",
">. c #57666A",
",. c #57676B",
"<. c #566669",
"1. c #58676B",
"2. c #57686C",
"3. c #58686C",
"4. c #58696D",
"5. c #596A6D",
"6. c #586A6E",
"7. c #596A6E",
"8. c #5A6A6E",
"9. c #5A6B6F",
"0. c #596A6E",
"q. c #596C70",
"w. c #596C71",
"e. c #596D71",
"r. c #5A6C71",
"t. c #5B6C71",
"y. c #5B6D71",
"u. c #5B6E72",
"i. c #5B6D71",
"p. c #5D7075",
"a. c #5D7175",
"s. c #728487",
"d. c #728487",
"f. c #74878A",
"g. c #74878B",
"h. c #738689",
"j. c #74888B",
"k. c #768A8E",
/* pixels */
"k.q.p.=.=.+.#.R u w u , g.t.u.3.=.*.Q 4 I w w , j.q.p.3.,.+.#.R u w u , j.y.p.3.+.=.Q 4 T w u ; ",
"q.0 q q q q q h r q e 3 3.0 q 0 4 0 h I q q e < 3.0 0 q q q 0 h r q e > 1.q 0 q 4 0 h I 0 q r ; ",
"q.0 =.j q 4 q q e @.w 3 +.q =.e q f q r k #.q > 9.0 =.j t 4 t q r +.e > +.0 =.e q f q f j +.q > ",
"2.2 q q > q q q 2 r r = =.> 0 f r q 0 j = q t & #.2 q q > 0 q q = f r & @.3 q r w q 0 f & e f % ",
"=.q q 0 Z 4 5 t h 7 q $ +.q r q 0 7 q n q f q & +.f e 0 Z 4 4 t h 7 q $ #.e t 0 0 2 q Z q r 0 $ ",
"2.q 5 Q d $ S d f t 4 O / e 0 * t q V 0 q 0 5 # { q 4 Q t & S t f f 4 + ' q 0 = t t h q e 0 6 O ",
"{ q e q = { j 4 q w 0 % I q 7 { 4 q q f 7 4 f # / q t q $ { t 4 q q 4 + F q 7 { 4 q q t 2 7 h O ",
"p q q 4 J N 0 0 q 4 h % Z 4 h r Z 0 e 0 f ' q o 9 e q 4 T S 0 6 t 4 h & V 4 l p Z 0 e 0 f ' e o ",
"i w t e t h 3 q e e j O h e d q S L 0 j ` w f o w t e q f h 7 q q f h + n q f q h L 0 j ' q e O ",
"8 0 { d q j ! 7 q +.e o 9 0 { t q 0 q e 0 +.q o 8 0 ' f q f ! 3 q +.q o 9 0 ' f q q q e 0 { e X ",
"1 7 0 e e e d J 3 q N o w 7 0 f q 5 Z e 7 q n X , 0 7 f t q j J 3 q h o w 7 0 f q 6 F e 7 q j X ",
", 8 3 & & & + O O O o . : 8 > & & $ + % O o X . , 7 > & & & + O O O o . , 7 > & = $ O % O o X . ",
"g.3.3.q.+.=.q t J u : , s.3.y.=.T h #.I Z 1 , , d.1.t.q.+.>.e e J u : , h.3.q.=.T j +.F Z , , ; ",
"q.0 q q e 4 Q j q q r 7 3.q q 0 4 ( e q q e e 7 3.q q q q 4 Q h q q t 7 3.0 q q 7 / e q q e j > ",
"q.0 #.b 0 / J q e =.q > +.q >.e f q q q r @.q > 3.q +.h 4 { T 0 r =.w > +.0 =.q e e e q r +.q > ",
"2.7 e 7 N Z q e 3 q e < =.= q r q r q h = e t + { 3 q 0 J h q f 3 q q 7 ,.3 q j q t 0 j = e e O ",
"+.2 M w 4 t q q q j e & { e e q q = q Z 0 q t & / 3 h r 7 e q q 0 N e > ( e e q q * q Z 6 q d # ",
"= j 0 T f q 5 & e b e & ( q q e $ h F 4 0 q d O $ j 0 J r q 4 * f h q = ( q e e $ d Z 4 0 q d O ",
",.q f q n 4 = h J q 4 # D q r 4 h ' 0 & q f 0 & =.e e q N 0 = N J 0 0 + D q e 2 j ' 7 & q t q $ ",
"_ q q q q * f / 0 q q % J e 4 q F 4 6 t = 0 3 0 Q q q r q * r / q 0 q % J e 5 q Z 4 6 d 2 7 3 7 ",
"w q f w 0 0 h q e j e # Z e e e q 0 4 j T q r + 8 r f r 0 q z 0 f r r + Z e e q q q 4 j J q t O ",
"n 0 #.q 0 0 e q 0 @.q % 9 7 { r 0 4 e q q +.e o u 7 +.q 0 0 q e 0 +.e % 9 7 +.t 0 4 q q q @.e X ",
"1 7 0 t n Z = j 7 q h o w 7 4 d e = r j 3 q b o , 0 0 r S h * j 7 q N o w 7 7 t q = r j 3 q j o ",
", 8 7 $ & > * @ + o O . : 8 7 , 4 q O $ % X o . , 7 3 = $ > = % # o o . : 7 7 , 4 q @ % % o o . ",
"g.1.y.=.+.J { I w 9 w : s.3.q.3.' =.T = n 9 w : s.3.y.+.+.J { I w 9 9 : s.3.y.3./ =.Q 2 k 0 9 - ",
"q.q q q q e q k j q e 7 3.q q 0 4 0 Z T 0 q e < 3.q q q q e q n j q t 7 3.q q 0 4 0 N J q e r > ",
"q.0 =.j e 4 q w r =.e > ' 0 =.e q t q r j #.q > 3.0 =.j e 4 w q r +.e > +.0 =.e q e q e j +.e > ",
"=.2 q q = 0 q q = r r = =.> q f q q 0 j = e t & +.2 q q = 0 q q = f r & =.2 q r f q 0 j & w e % ",
"=.q t 0 Z 4 4 t n 3 q $ #.q t q q 4 q n q q q & { t e 0 Z 4 4 t n 7 q $ #.q e q 0 2 q h q r q % ",
"2.q 4 Q j & S t f f 4 + ' q 0 = t q k q t 0 6 # +.q 4 Q j & S t f f 4 + ' q 0 = t e n q t 0 6 O ",
"#.q q q = { t 4 q q 0 % F q 7 { 4 q q f 2 4 d @ ' q q w = { d 4 q q 0 % F q 7 { 4 q q f 2 4 M O ",
"p q q 4 J h 6 q q 4 l % V 4 h f I 0 q 0 j { e o 9 e q 4 J N 6 0 q 4 h % F 4 j f T 0 q 0 r { e o ",
"i q f q t h 3 q e e h + n q j q h L q d _ q f o w r t e t h 7 q e e h + n q u q h L q z _ q t o ",
"8 0 +.f q j ! 7 q +.q o 9 0 ' f q q 0 t 0 { q o 8 0 +.t q h ! 3 q +.q o 9 0 +.r q q 0 e 0 +.q o ",
"1 0 0 q f q j J 3 q N o w 7 0 f q 6 F e 7 q N o , 0 7 e t q d J 3 q N o w 0 0 f 0 6 F t 7 q N o ",
", 1 7 & & = O O O O o . : 8 3 % & % O % O o o . , 7 3 & & & + O O O o . : 7 > & & % O % O o X . ",
"j.3.3.q.+.=.t q T u : , s.2.q.=.T j =.F Z , , , d.3.9.q.{ >.e e T u : , d.3.q.=./ h @.D Z 1 , ; ",
"t.q q q e 4 Q h q q r 7 3.q q q 7 ( e q q e t 3 3.q q 0 q 4 Q h q q r 7 3.q q 0 7 ( e e q e t > ",
"q.0 { j 0 ' J 0 r +.q 3 +.0 =.e f q r q r #.q > 3.0 +.j 0 { L 0 r =.q > +.0 =.e e q r q e { q ; ",
"=.7 r 7 N Z q t 3 q e , =.2 q t q f 0 h = r e + #.7 w 0 F h q f 3 q e 1 =.2 q f q r 0 j = e t O ",
"@.2 h e 4 t q q 0 h e & +.e e 0 e = 0 N 0 e e % / 7 h e 7 f q q 0 j r = +.e r 0 e = q Z 4 q d + ",
"* j 0 L r e 4 = f N e & / q q r $ b D 4 6 q d O & k 0 T r q 5 = j Z q & / q q r $ d Z 4 0 q f @ ",
"=.e w q Z 5 = h T q 4 + J q f 7 b Q 7 $ q d 0 & { e q q N 5 $ Z J 0 4 # F q t 4 b Q 0 = q r q $ ",
"/ q q t 0 * j T q 0 q % J q 4 q b 4 e d 2 0 3 0 L q q f 0 * j Q 0 q q % J e 4 q Z 4 0 z = 0 3 7 ",
"9 w d e 0 q z q j e f # h e e q e 0 4 b J q j + 8 t f q 0 q d q j t f + Z e e q q q 4 d T w r O ",
"V 0 { q 0 0 q q 0 +.q # 9 0 +.d 4 4 e q 0 =.q o f 7 +.q 0 0 e q 0 +.e # 9 0 +.t 4 4 e q q #.e X ",
"1 7 0 f Z Z * j 7 q M o w 0 0 d e 2 e r 7 q b X , 0 0 f F Z * j 7 q j o w 0 0 j e 3 e r 7 q j o ",
"; > > % % & = @ + X X . - > > ; 2 5 O & + X X   : > > % % & = @ O X o . - > > % 2 5 O & O X O   "
};
